<?xml version="1.0" encoding="UTF-8"?>
<!-- Generator: Adobe Illustrator 26.0.1, SVG Export Plug-In . SVG Version: 6.00 Build 0)  -->
<svg xmlns="http://www.w3.org/2000/svg" xmlns:xlink="http://www.w3.org/1999/xlink" version="1.1" id="Capa_1" x="0px" y="0px" viewBox="0 0 512.025 512.025" style="enable-background:new 0 0 512.025 512.025;" xml:space="preserve" width="512" height="512">
<g>
	<path d="M210.311,239.06c4.07-2.7,8.21-5.25,12.39-7.68c-0.55,9.54,1.33,19.729,6.49,27.54c-14.22,3.689-28.45,7.41-42.67,11.109   c0.86-11.26,7.17-18.87,16.43-25.87c-71.11,52.48,36.67,86.45,102.87,88.641c23.6-52.271,32.69-96.47,27.04-146.19   c47.05-14.569,86.62-21.779,102.99-22.8c3.41-0.21,3.7-1.229,0.18-5.56c-33.68-41.61-78.28-51.37-130.21-59.74   c-11.35-16.311-19.28-33.811-24.81-52.15c-22.4,10.04-44.58,20.271-61.7,34.99c0.02,0.01,0.03,0.021,0.05,0.021   c0,0,0.01,0,0.01,0.01c1.01,0.59,3.36,2.08,8.27,5.64c49.78,36.21,51.21,84.36-4.34,137.851c-4.79,4.619-10.66,10.619-15.67,15.96   L210.311,239.06z M387.251,124.859c-19.41,5.601-37.8,13.09-55.18,22.46c5.56-9.5,10.86-24.84,11.21-36.08   C357.801,114.17,373.321,119.019,387.251,124.859z M327.491,145.14c-6.35-5.43-13.97-9.26-22.64-11.77   c11.05-9.801,23.03-17.381,35.82-23.11C338.201,122.479,334.601,134.37,327.491,145.14z M289.491,235.359   c-3.86-1.779-13.67-8-21.33-21.13c7.48-2.7,17.35-6.899,24.82-9.6C294.501,213.21,291.231,225.699,289.491,235.359z    M301.041,200.71c12.26,4.149,22.35,9.37,27.64,17.01c-11.24,5.729-24.89,13.66-36.14,19.39   C294.581,225.699,299.011,212.12,301.041,200.71z M295.271,130.21c-8.6-2.771-17.2-5.53-25.8-8.29   c5.74-9.021,14.7-14.17,23.41-19.62C293.681,111.609,294.471,120.899,295.271,130.21z M290.371,135.87   c-7.54,6.649-14.65,13.3-22.21,19.939c0.43-8.09,0.19-17.17-0.87-26.45C274.991,131.529,282.681,133.699,290.371,135.87z    M294.941,137.949c-4.53,11.511-9.07,23.03-13.6,34.54c-3.24-4.47-7.82-7.109-13.39-8.39   C276.951,155.38,285.951,146.659,294.941,137.949z M299.421,139.909c7.79,1.771,14.1,5.04,19.59,9.15   c-11.95,8.43-23.88,16.86-35.82,25.29C288.591,162.87,294.001,151.38,299.421,139.909z M280.801,179.029   c4.28,4.78,4.42,12.811,5.22,19.62c-12,3.79-26.2,9.681-40.17,17.12C256.521,204.609,270.121,190.189,280.801,179.029z    M288.681,241.79c-1.88,12.279-13.85,30.22-24.44,41.319c-10.26-5.399-19.13-12.05-24.6-21.8   C255.131,258.409,275.221,247.319,288.681,241.79z M237.251,257.279c6.97-12.649,20.25-28.23,27.21-40.87   c5.81,12.131,14.81,18.66,21.77,22.66C272.991,246.33,251.081,255.84,237.251,257.279z M289.721,197.34   c-0.54-7.78-2.16-14.61-5.02-20.36c13.07-8.189,26.14-16.359,39.2-24.54C313.171,166.979,300.461,182.819,289.721,197.34z    M335.231,108.409c-12.51,5.98-24.18,13.49-34.95,22.66c-1.35-9.51-2.68-19.029-4.03-28.54   C309.691,102.84,322.651,104.89,335.231,108.409z M300.931,95.38c-4.83,0.3-11.62-0.53-16.47-0.24c-1.47-0.23-2.95-0.48-4.44-0.72   c-1.37-0.811-5.39-1.8-6.51-2.57c6.52-1.99,14.36-5.51,18.28-8.94C294.121,87.109,298.891,92.63,300.931,95.38z M278.841,54.35   c2.45,7.7,5.31,14.24,8.92,18.74c-12.47-0.271-25.33-1.63-38.97-5.12C257.581,62.189,267.731,57.8,278.841,54.35z M289.721,79.519   c-5.35,4.08-13.52,8.101-21.77,11.01c-8.98-4.58-18.02-13.399-22.63-19.729C258.371,74.739,276.661,79.09,289.721,79.519z    M240.301,72.88c3.26,4.35,7.07,9.84,12.96,13.62c-4.1,0.279-8.19,0.56-12.28,0.85c0,0-0.02,0-0.03-0.01   c-2.5-1.23-3.79-3.061-10.44-4.22C232.381,78.479,235.811,74.62,240.301,72.88z M236.321,89.859c4.21,0.101,8.94,0.971,14.09,3.011   c3.66,5.729,6.21,13.26,7.26,19.3C252.501,104.67,244.371,95.899,236.321,89.859z M264.141,119.31   c-1.71-7.32-3.45-14.65-7.02-24.07c10.38,0.841,21.26,2,31.35,5.46C279.721,105.79,270.871,111.88,264.141,119.31z M264.911,170.75   c3.63,0.71,6.91,2.609,9.68,6.21c-5.45,3.68-10.88,7.35-16.32,11.01C261.161,182.569,263.761,177.029,264.911,170.75z    M256.961,190.8c0.84,2.62,1.66,5.229,2.5,7.85c-6.77,4.65-13.53,9.3-20.3,13.96C248.601,203.479,253.031,196.689,256.961,190.8z    M229.841,230.13c9.01-3.771,18-7.55,27-11.33c-4.96,12.109-12.73,23.8-21.77,35.32C229.061,249.529,226.451,238.08,229.841,230.13   z M201.971,300.109c-10.95-4.83-15.51-14.35-15.73-27.029c14.1-3.2,28.2-6.391,42.29-9.591   C223.641,276.77,214.431,288.87,201.971,300.109z M233.981,265.229c5.3,7.45,12.85,14.061,23.95,21.37   c-16.5,7.06-33.42,11.97-50.51,16.13C218.181,291.04,227.291,278.649,233.981,265.229z M210.041,304.239   c17.54-3.159,36.6-9.68,52.67-15.47c-2.04,10.42-11.08,21.71-20.68,30.09C230.591,315.97,219.751,311.5,210.041,304.239z    M267.671,290.96c12.41,7.29,26.74,9.38,40.33,11.979c-18.91,8.59-39.75,13.73-61.29,17.66   C255.961,310.68,262.781,301.77,267.671,290.96z M302.571,328.88c-15.7-0.49-31.03-2.7-46.16-6.101   c19.01-4.35,37.48-10.35,55.62-17.33C309.241,313.92,307.071,321.859,302.571,328.88z M315.621,299.239   c-13.8-2.52-33-3.8-43.76-12.43c17.12-7.27,36.65-15.189,53.77-22.439C323.671,276.859,319.751,287.83,315.621,299.239z    M267.941,285.5c8.51-8.78,20.97-29.2,23.67-42.641c11.66,8.28,25.59,15.4,34.35,16.71   C310.151,265.739,283.771,279.33,267.941,285.5z M327.941,253.229c-12.45-1.18-24.36-5.53-34.15-13.28   c11.61-6.04,24.81-12.06,36.42-18.1C330.721,233.109,329.161,242.189,327.941,253.229z M330.431,212.269   c-4.72-6.67-12.19-10.93-21.55-13.52c6.6-1.62,13.2-3.24,19.8-4.851C330.031,200.019,330.821,206.14,330.431,212.269z    M296.681,194.399c10.24-12.859,21.56-26.05,31.79-38.91c9.74,4.44,17.59,11.29,25.58,20.391   C334.931,182.05,315.811,188.229,296.681,194.399z M335.111,149.5c18.18-8.94,37.78-15.301,57.69-21.04   c-10.22,15.62-22.44,30.819-34.4,46.439C353.251,165.34,345.201,156.14,335.111,149.5z M363.841,173.46   c12.63-13.62,22.53-28.15,31.68-42.94c14.77,7.601,26.69,17.73,36.25,29.97C409.441,162.62,386.751,167.26,363.841,173.46z"/>
	<path id="path31" style="fill-rule:evenodd;clip-rule:evenodd;" d="M0,359.948v-28.759h5.732l6.803,20.363   c0.63,1.895,1.092,3.314,1.373,4.259c0.328-1.045,0.837-2.585,1.533-4.613l6.883-20.008h5.122v28.759h-3.67v-24.072l-8.356,24.072   h-3.435l-8.316-24.481v24.481H0z M33.152,335.254v-4.065h3.535v4.065H33.152z M33.152,359.949v-20.831h3.535v20.831L33.152,359.949   z M55.657,352.315l3.469,0.456c-0.375,2.39-1.346,4.265-2.913,5.618c-1.56,1.353-3.482,2.029-5.758,2.029   c-2.846,0-5.143-0.931-6.87-2.793c-1.734-1.861-2.605-4.533-2.605-8.015c0-2.25,0.375-4.219,1.118-5.906   c0.75-1.687,1.882-2.953,3.408-3.797c1.52-0.844,3.181-1.266,4.968-1.266c2.263,0,4.118,0.576,5.551,1.721   c1.44,1.145,2.364,2.765,2.772,4.875l-3.435,0.529c-0.328-1.4-0.904-2.451-1.735-3.161c-0.83-0.703-1.835-1.058-3.013-1.058   c-1.781,0-3.228,0.636-4.339,1.915c-1.111,1.272-1.667,3.288-1.667,6.047c0,2.799,0.536,4.835,1.613,6.107   c1.072,1.266,2.471,1.902,4.198,1.902c1.386,0,2.538-0.429,3.469-1.279C54.82,355.389,55.409,354.083,55.657,352.315   L55.657,352.315z M62.112,359.949v-20.831h3.174v3.154c0.81-1.473,1.56-2.451,2.25-2.92c0.683-0.469,1.439-0.71,2.263-0.71   c1.192,0,2.397,0.382,3.63,1.139l-1.219,3.281c-0.857-0.516-1.721-0.77-2.585-0.77c-0.777,0-1.466,0.234-2.082,0.696   c-0.616,0.469-1.051,1.111-1.313,1.935c-0.395,1.252-0.589,2.625-0.589,4.118v10.908H62.112z M74.212,349.53   c0-3.857,1.071-6.716,3.221-8.571c1.788-1.54,3.97-2.317,6.549-2.317c2.866,0,5.209,0.937,7.024,2.819   c1.821,1.875,2.725,4.466,2.725,7.774c0,2.685-0.402,4.794-1.205,6.328c-0.804,1.54-1.975,2.732-3.509,3.582   c-1.54,0.85-3.214,1.272-5.035,1.272c-2.913,0-5.27-0.931-7.071-2.806C75.109,355.743,74.212,353.052,74.212,349.53z    M77.841,349.53c0,2.672,0.583,4.667,1.748,5.993c1.165,1.332,2.631,1.995,4.393,1.995c1.754,0,3.214-0.67,4.379-2.002   c1.158-1.332,1.741-3.368,1.741-6.1c0-2.578-0.583-4.533-1.754-5.859c-1.172-1.326-2.625-1.989-4.366-1.989   c-1.761,0-3.228,0.663-4.393,1.982C78.423,344.869,77.841,346.865,77.841,349.53z M96.462,353.728l3.489-0.549   c0.194,1.4,0.743,2.471,1.641,3.221c0.89,0.743,2.143,1.118,3.756,1.118c1.62,0,2.826-0.335,3.609-0.991   c0.783-0.663,1.178-1.44,1.178-2.324c0-0.803-0.348-1.426-1.045-1.888c-0.482-0.315-1.688-0.71-3.609-1.192   c-2.585-0.656-4.386-1.219-5.384-1.701c-0.998-0.475-1.761-1.138-2.277-1.982c-0.516-0.844-0.777-1.775-0.777-2.793   c0-0.931,0.215-1.788,0.643-2.578c0.422-0.797,1.005-1.453,1.734-1.975c0.549-0.402,1.299-0.75,2.243-1.031   c0.951-0.281,1.968-0.422,3.053-0.422c1.634,0,3.067,0.241,4.305,0.71c1.239,0.469,2.15,1.105,2.739,1.908   c0.589,0.81,0.991,1.882,1.212,3.228l-3.448,0.475c-0.161-1.071-0.616-1.908-1.366-2.511c-0.75-0.603-1.815-0.904-3.187-0.904   c-1.62,0-2.779,0.268-3.469,0.804c-0.696,0.536-1.045,1.165-1.045,1.882c0,0.462,0.148,0.87,0.435,1.239   c0.288,0.382,0.737,0.69,1.353,0.944c0.355,0.127,1.393,0.428,3.12,0.897c2.498,0.67,4.239,1.212,5.223,1.641   c0.991,0.422,1.768,1.044,2.33,1.855c0.562,0.81,0.844,1.815,0.844,3.02c0,1.179-0.348,2.283-1.031,3.328   c-0.69,1.038-1.681,1.841-2.973,2.41c-1.292,0.569-2.759,0.851-4.393,0.851c-2.712,0-4.774-0.563-6.194-1.688   C97.754,357.605,96.851,355.938,96.462,353.728L96.462,353.728z M116.644,349.53c0-3.857,1.071-6.716,3.221-8.571   c1.788-1.54,3.971-2.317,6.549-2.317c2.866,0,5.209,0.937,7.024,2.819c1.821,1.875,2.725,4.466,2.725,7.774   c0,2.685-0.402,4.794-1.205,6.328c-0.804,1.54-1.975,2.732-3.509,3.582c-1.54,0.85-3.214,1.272-5.035,1.272   c-2.913,0-5.27-0.931-7.071-2.806C117.541,355.743,116.644,353.052,116.644,349.53L116.644,349.53z M120.273,349.53   c0,2.672,0.583,4.667,1.748,5.993c1.165,1.332,2.631,1.995,4.393,1.995c1.754,0,3.214-0.67,4.379-2.002   c1.158-1.332,1.741-3.368,1.741-6.1c0-2.578-0.583-4.533-1.755-5.859c-1.172-1.326-2.625-1.989-4.366-1.989   c-1.761,0-3.228,0.663-4.393,1.982C120.855,344.869,120.273,346.865,120.273,349.53z M141.144,359.949v-18.086h-3.114v-2.745h3.114   v-2.216c0-1.4,0.127-2.444,0.375-3.12c0.342-0.917,0.937-1.661,1.794-2.23c0.857-0.569,2.056-0.851,3.603-0.851   c0.991,0,2.089,0.114,3.294,0.355l-0.529,3.08c-0.73-0.134-1.426-0.201-2.082-0.201c-1.072,0-1.828,0.228-2.27,0.69   c-0.449,0.455-0.67,1.312-0.67,2.571v1.922h4.058v2.745h-4.058v18.086H141.144z M159.176,356.788l0.509,3.12   c-0.991,0.207-1.882,0.315-2.665,0.315c-1.286,0-2.277-0.201-2.986-0.609c-0.703-0.402-1.199-0.937-1.487-1.6   c-0.288-0.656-0.435-2.049-0.435-4.165v-11.986h-2.591v-2.745h2.591v-5.163l3.515-2.116v7.279h3.549v2.745h-3.549v12.18   c0,1.011,0.06,1.654,0.181,1.942c0.127,0.288,0.328,0.516,0.609,0.689c0.281,0.168,0.683,0.255,1.205,0.255   C158.018,356.929,158.534,356.882,159.176,356.788L159.176,356.788z"/>
	<path id="path33" style="fill-rule:evenodd;clip-rule:evenodd;" d="M162.424,340.929c0-1.844,0.647-3.41,1.944-4.702   c1.297-1.291,2.875-1.939,4.73-1.939c1.838,0,3.407,0.647,4.704,1.939c1.294,1.292,1.945,2.858,1.945,4.702   c0,1.846-0.65,3.413-1.945,4.704c-1.297,1.292-2.869,1.939-4.713,1.939c-1.86,0-3.438-0.647-4.729-1.939   C163.068,344.342,162.424,342.775,162.424,340.929z M163.253,340.929c0,1.625,0.569,3.004,1.706,4.135   c1.14,1.129,2.516,1.693,4.13,1.693c1.619,0,2.995-0.566,4.13-1.698c1.132-1.132,1.698-2.508,1.698-4.13   c0-1.62-0.569-2.995-1.703-4.133c-1.135-1.135-2.511-1.704-4.124-1.704c-1.614,0-2.989,0.569-4.13,1.701   C163.822,337.925,163.253,339.304,163.253,340.929L163.253,340.929z M172.339,345.067h-1.527l-0.886-2.028   c-0.218-0.491-0.448-0.86-0.689-1.107c-0.241-0.247-0.496-0.37-0.765-0.37h-0.762v3.505h-1.258v-8.422h2.432   c0.972,0,1.734,0.202,2.281,0.608c0.546,0.404,0.82,0.973,0.82,1.698c0,0.58-0.185,1.073-0.557,1.479   c-0.372,0.404-0.894,0.675-1.569,0.813c0.235,0.065,0.471,0.227,0.706,0.488c0.235,0.261,0.462,0.619,0.681,1.079L172.339,345.067z    M167.711,337.712v2.799h1.238c0.557,0,0.978-0.118,1.261-0.353c0.28-0.236,0.423-0.588,0.423-1.059   c0-0.499-0.154-0.854-0.457-1.067c-0.302-0.213-0.784-0.32-1.44-0.32H167.711z"/>
	<path id="path35" style="fill-rule:evenodd;clip-rule:evenodd;" d="M502.777,398.096c0-1.28,0.449-2.367,1.35-3.264   c0.9-0.896,1.996-1.346,3.283-1.346c1.276,0,2.365,0.449,3.265,1.346c0.899,0.897,1.35,1.984,1.35,3.264   c0,1.282-0.451,2.369-1.35,3.266c-0.9,0.897-1.992,1.346-3.271,1.346c-1.291,0-2.386-0.449-3.283-1.346   C503.224,400.465,502.777,399.378,502.777,398.096L502.777,398.096z M503.352,398.096c0,1.128,0.395,2.085,1.185,2.871   c0.792,0.784,1.747,1.175,2.867,1.175c1.124,0,2.079-0.393,2.867-1.178c0.786-0.786,1.178-1.741,1.178-2.867   c0-1.124-0.395-2.079-1.182-2.869c-0.788-0.788-1.743-1.183-2.863-1.183c-1.12,0-2.075,0.395-2.867,1.181   C503.747,396.011,503.352,396.968,503.352,398.096L503.352,398.096z M509.66,400.969h-1.06l-0.615-1.408   c-0.152-0.341-0.311-0.597-0.478-0.768c-0.167-0.171-0.344-0.257-0.531-0.257h-0.529v2.433h-0.873v-5.846h1.688   c0.675,0,1.204,0.14,1.583,0.422c0.379,0.28,0.57,0.675,0.57,1.179c0,0.403-0.128,0.745-0.387,1.027   c-0.259,0.28-0.621,0.469-1.089,0.564c0.163,0.045,0.327,0.158,0.49,0.339c0.163,0.181,0.321,0.43,0.473,0.749L509.66,400.969z    M506.447,395.863v1.943h0.86c0.387,0,0.679-0.082,0.875-0.245c0.195-0.163,0.294-0.408,0.294-0.735   c0-0.346-0.107-0.593-0.317-0.741c-0.21-0.148-0.544-0.222-1-0.222H506.447z"/>
	<path id="path37" style="fill-rule:evenodd;clip-rule:evenodd;" d="M316.203,332.851v-6.294h-2.351v-0.843h5.656v0.843h-2.361   v6.294H316.203z M320.447,332.851v-7.137h1.422l1.688,5.053c0.156,0.47,0.271,0.823,0.341,1.057   c0.081-0.259,0.208-0.641,0.38-1.144l1.708-4.965h1.271v7.137h-0.91v-5.973l-2.074,5.973h-0.853l-2.064-6.075v6.075H320.447z"/>
	<path id="path39" style="fill-rule:evenodd;clip-rule:evenodd;" d="M0.336,432.001c2.23,1.957,5.199,3.546,8.938,4.797   c3.722,1.252,7.269,1.878,10.622,1.878c10.205,0,15.324-3.627,15.324-10.895c0-2.038-0.545-3.867-1.652-5.504   c-1.091-1.637-2.599-3.065-4.509-4.332c-1.91-1.252-5.504-3.177-10.767-5.777c-7.301-3.627-12.115-7.012-14.425-10.125   c-2.327-3.129-3.482-6.691-3.482-10.703c0-6.049,2.423-10.847,7.285-14.377c4.862-3.546,10.992-5.311,18.389-5.311   c7.237,0,12.548,0.866,15.934,2.631v10.237c-4.397-3.033-9.933-4.557-16.64-4.557c-4.461,0-8.087,0.931-10.895,2.808   c-2.792,1.862-4.204,4.445-4.204,7.767c0,2.952,0.979,5.343,2.92,7.205c1.942,1.846,6.162,4.365,12.645,7.558   c7.14,3.418,12.147,6.835,14.987,10.253c2.856,3.418,4.284,7.253,4.284,11.521c0,6.386-2.311,11.296-6.964,14.714   c-4.637,3.418-11.072,5.118-19.319,5.118c-2.872,0-6.242-0.401-10.077-1.203c-3.835-0.786-6.643-1.781-8.392-2.984V432.001z    M125.8,464.59c-2.279,0.722-5.023,1.075-8.216,1.075c-4.509,0-8.793-1.091-12.821-3.289c-4.027-2.198-9.595-7.349-16.704-15.469   c-9.756,0.065-17.763-3.402-24.053-10.382c-6.274-6.996-9.419-15.789-9.419-26.38c0-11.81,3.177-21.181,9.548-28.113   c6.354-6.916,15.051-10.382,26.091-10.382c9.933,0,17.987,3.402,24.181,10.189c6.194,6.803,9.291,15.661,9.291,26.572   c0,9.676-2.182,17.811-6.547,24.39c-4.348,6.579-10.542,10.831-18.565,12.741c4.044,4.397,7.493,7.397,10.35,9.002   c2.84,1.621,6.033,2.423,9.532,2.423c2.888,0,5.327-0.417,7.333-1.268V464.59z M64.456,409.392c0,8.809,2.247,15.869,6.756,21.181   c4.493,5.312,10.366,7.975,17.602,7.975c7.767,0,13.88-2.551,18.309-7.638c4.429-5.103,6.643-12.227,6.643-21.374   c0-9.403-2.166-16.656-6.499-21.758c-4.348-5.119-10.286-7.67-17.843-7.67c-7.429,0-13.447,2.696-18.052,8.087   C66.767,393.586,64.456,400.647,64.456,409.392L64.456,409.392z M176.169,445.688h-38.414v-72.817h9.403v64.489h29.011V445.688z    M212.257,432.001c2.23,1.957,5.199,3.546,8.938,4.797c3.723,1.252,7.269,1.878,10.622,1.878c10.205,0,15.324-3.627,15.324-10.895   c0-2.038-0.545-3.867-1.652-5.504c-1.091-1.637-2.6-3.065-4.509-4.332c-1.91-1.252-5.504-3.177-10.767-5.777   c-7.301-3.627-12.115-7.012-14.425-10.125c-2.327-3.129-3.482-6.691-3.482-10.703c0-6.049,2.423-10.847,7.285-14.377   c4.862-3.546,10.992-5.311,18.389-5.311c7.237,0,12.548,0.866,15.934,2.631v10.237c-4.397-3.033-9.932-4.557-16.64-4.557   c-4.461,0-8.088,0.931-10.896,2.808c-2.792,1.862-4.204,4.445-4.204,7.767c0,2.952,0.979,5.343,2.92,7.205   c1.942,1.846,6.162,4.365,12.645,7.558c7.14,3.418,12.147,6.835,14.987,10.253c2.856,3.418,4.284,7.253,4.284,11.521   c0,6.386-2.311,11.296-6.964,14.714c-4.637,3.418-11.072,5.118-19.319,5.118c-2.872,0-6.242-0.401-10.077-1.203   c-3.835-0.786-6.643-1.781-8.392-2.984L212.257,432.001z M312.384,422.036h-36.376c0.16,5.552,1.669,9.836,4.557,12.869   c2.888,3.017,6.916,4.525,12.082,4.525c5.825,0,11.168-1.861,16.03-5.584v8.216c-4.573,3.241-10.638,4.846-18.196,4.846   c-7.525,0-13.382-2.375-17.602-7.14c-4.22-4.766-6.322-11.377-6.322-19.833c0-7.975,2.311-14.538,6.932-19.705   c4.621-5.167,10.366-7.75,17.233-7.75c6.804,0,12.115,2.182,15.934,6.547c3.819,4.38,5.728,10.494,5.728,18.357V422.036z    M303.173,414.655c-0.032-4.701-1.139-8.328-3.337-10.895c-2.198-2.567-5.279-3.867-9.259-3.867c-3.675,0-6.836,1.364-9.515,4.092   c-2.68,2.728-4.365,6.29-5.055,10.671L303.173,414.655z M352.531,402.813c-1.54-1.091-3.658-1.637-6.338-1.637   c-3.578,0-6.531,1.669-8.841,5.006c-2.326,3.338-3.482,7.734-3.482,13.174v26.332h-9.21v-51.989h9.21v10.575h0.193   c2.632-7.654,7.173-11.473,13.623-11.473c2.102,0,3.723,0.241,4.846,0.706L352.531,402.813z M407.489,393.699l-20.587,51.99h-9.307   l-19.56-51.99h10.061l12.692,37.131c1.027,2.985,1.653,5.472,1.829,7.478h0.241c0.305-2.632,0.866-5.055,1.636-7.285l13.318-37.323   H407.489z M457.874,422.036h-36.376c0.16,5.552,1.669,9.836,4.557,12.869c2.888,3.017,6.916,4.525,12.082,4.525   c5.825,0,11.168-1.861,16.03-5.584v8.216c-4.573,3.241-10.638,4.846-18.196,4.846c-7.525,0-13.382-2.375-17.602-7.14   c-4.22-4.766-6.322-11.377-6.322-19.833c0-7.975,2.311-14.538,6.932-19.705c4.621-5.167,10.366-7.75,17.233-7.75   c6.804,0,12.115,2.182,15.934,6.547c3.819,4.38,5.728,10.494,5.728,18.357V422.036z M448.663,414.655   c-0.032-4.701-1.139-8.328-3.337-10.895c-2.198-2.567-5.279-3.867-9.259-3.867c-3.675,0-6.836,1.364-9.515,4.092   c-2.68,2.728-4.365,6.29-5.055,10.671L448.663,414.655z M498.021,402.813c-1.54-1.091-3.658-1.637-6.338-1.637   c-3.578,0-6.531,1.669-8.841,5.006c-2.326,3.338-3.482,7.734-3.482,13.174v26.332h-9.21v-51.99h9.21v10.574h0.193   c2.632-7.654,7.173-11.473,13.623-11.473c2.102,0,3.723,0.241,4.846,0.706L498.021,402.813z"/>
</g>















</svg>
