<svg id="Capa_1" enable-background="new 0 0 512 512" height="512" viewBox="0 0 512 512" width="512" xmlns="http://www.w3.org/2000/svg"><g><g><circle cx="256" cy="256" r="256"/></g><g fill="#fff"><path id="path10" d="m237.02 126.421c.04.01.08.02.08.02-.03-.01-.05-.01-.08-.02zm-.08-.01c.02 0 .04.01.07.01-.03-.01-.06-.02-.09-.02z"/><path d="m391.69 182.301c-25.39-31.36-59-38.72-98.15-45.02-8.55-12.3-14.53-25.49-18.7-39.31-16.88 7.56-33.6 15.28-46.51 26.37.01.01.02.01.04.02.76.45 2.53 1.57 6.25 4.26 37.51 27.29 38.6 63.59-3.27 103.9-3.62 3.49-7.54 7.67-11.31 11.69.09-.06.18-.12.28-.18 3.56-2.22 7.11-4.45 10.67-6.66.02-.01.03-.02.05-.03-.68 7.57.6 14.59 4.74 20.85-10.72 2.78-21.44 5.58-32.16 8.37.67-8.76 5.72-14.59 13.07-20-54.97 39.84 26.75 65.66 76.85 67.32 17.92-39.66 24.81-72.41 20.38-110.2 35.47-10.98 65.3-16.41 77.63-17.18 2.58-.16 2.79-.93.14-4.2zm-36.77-25.161c-14.63 4.22-28.49 9.86-41.59 16.93 4.19-7.17 8.18-18.72 8.45-27.2 10.95 2.211 22.64 5.871 33.14 10.27zm-45.04 15.281c-4.79-4.09-10.53-6.97-17.06-8.87 8.32-7.38 17.35-13.1 26.99-17.41-1.86 9.21-4.57 18.16-9.93 26.28zm-28.64 68.01c-2.92-1.34-10.31-6.03-16.08-15.93 5.64-2.03 13.07-5.2 18.71-7.23 1.14 6.46-1.32 15.879-2.63 23.16zm8.7-26.12c9.24 3.13 16.85 7.07 20.84 12.82-8.48 4.33-18.76 10.3-27.25 14.62 1.54-8.601 4.88-18.841 6.41-27.44zm-8.04-48.87c-5.69 5.01-11.05 10.03-16.74 15.03.32-6.1.14-12.94-.66-19.94 5.8 1.64 11.61 3.27 17.4 4.91zm-15.76-10.52c4.33-6.79 11.09-10.68 17.65-14.78.6 7.01 1.2 14.02 1.8 21.03-6.48-2.09-12.96-4.17-19.45-6.25zm19.21 12.08c-3.42 8.68-6.84 17.36-10.26 26.04-2.44-3.37-5.89-5.36-10.09-6.32 6.78-6.571 13.57-13.15 20.35-19.72zm3.37 1.48c5.87 1.34 10.63 3.8 14.76 6.9-9 6.35-18 12.71-26.99 19.06 4.07-8.65 8.15-17.311 12.23-25.96zm-14.03 29.49c3.22 3.6 3.33 9.65 3.93 14.79-9.05 2.85-19.75 7.3-30.28 12.9 8.04-8.41 18.3-19.281 26.35-27.69zm5.94 47.31c-1.42 9.25-10.45 22.78-18.43 31.14-7.73-4.07-14.42-9.08-18.54-16.43 11.68-2.19 26.82-10.54 36.97-14.71zm-38.77 11.67c5.25-9.53 15.26-21.28 20.51-30.8 4.38 9.14 11.16 14.07 16.41 17.08-9.98 5.47-26.5 12.64-36.92 13.72zm39.55-45.18c-.41-5.86-1.63-11.01-3.79-15.35 9.86-6.17 19.71-12.32 29.55-18.49-8.09 10.949-17.67 22.9-25.76 33.84zm34.3-67.03c-9.43 4.51-18.23 10.16-26.34 17.08-1.02-7.17-2.02-14.34-3.04-21.52 10.13.24 19.9 1.79 29.38 4.44zm-25.85-9.83c-3.65.23-8.76-.39-12.41-.17h-.07c-1.11-.07-2.18-.37-3.28-.55-1.04-.61-4.06-1.35-4.91-1.94 4.92-1.49 10.83-4.14 13.78-6.74 1.76 3.18 5.35 7.33 6.89 9.4zm-16.65-30.92c1.84 5.8 4 10.74 6.72 14.13-9.4-.21-19.1-1.24-29.37-3.87 6.62-4.35 14.27-7.66 22.65-10.26zm8.2 18.97c-4.03 3.08-10.19 6.11-16.41 8.3-6.77-3.45-13.58-10.1-17.06-14.87 9.84 2.97 23.62 6.25 33.47 6.57zm-37.26-5c2.47 3.28 5.33 7.42 9.78 10.26-3.1.21-6.18.43-9.26.64 0 0-.01 0-.02-.01-1.88-.92-2.86-2.3-7.87-3.18 1.4-3.49 4-6.4 7.37-7.71zm-2.99 12.8c3.17.08 6.74.73 10.62 2.26 2.76 4.33 4.68 10 5.47 14.55-3.89-5.65-10.02-12.26-16.09-16.81zm20.96 22.19c-1.29-5.51-2.6-11.04-5.29-18.13 7.83.63 16.03 1.5 23.64 4.1-6.6 3.85-13.27 8.44-18.35 14.03zm.59 38.78c2.74.53 5.21 1.96 7.3 4.68-4.11 2.77-8.21 5.54-12.31 8.3 2.18-4.071 4.14-8.25 5.01-12.98zm-5.99 15.12c.63 1.97 1.25 3.94 1.88 5.91-5.11 3.5-10.2 7.01-15.3 10.52 7.11-6.881 10.45-12 13.42-16.43zm-20.45 29.64c6.79-2.85 13.57-5.69 20.36-8.54-3.75 9.12-9.6 17.94-16.42 26.62-4.53-3.46-6.49-12.09-3.94-18.08zm-21 52.75c-8.26-3.64-11.7-10.82-11.86-20.37 10.63-2.42 21.26-4.82 31.88-7.24-3.69 10.009-10.63 19.14-20.02 27.61zm24.13-26.3c3.99 5.62 9.68 10.61 18.05 16.11-12.44 5.32-25.2 9.03-38.07 12.16 8.1-8.811 14.97-18.15 20.02-28.27zm-18.05 29.41c13.22-2.38 27.58-7.3 39.7-11.66-1.54 7.85-8.35 16.36-15.59 22.68-8.63-2.18-16.79-5.55-24.11-11.02zm43.44-10.01c9.35 5.49 20.15 7.07 30.4 9.03-14.26 6.47-29.96 10.35-46.2 13.31 6.97-7.48 12.11-14.19 15.8-22.34zm26.3 28.59c-11.83-.38-23.39-2.04-34.79-4.61 14.33-3.28 28.25-7.8 41.92-13.06-2.09 6.379-3.73 12.369-7.13 17.67zm9.84-22.35c-10.4-1.9-24.87-2.87-32.98-9.37 12.9-5.48 27.62-11.45 40.53-16.92-1.48 9.42-4.43 17.69-7.55 26.29zm-35.94-10.35c6.42-6.63 15.81-22.01 17.84-32.14 8.79 6.23 19.3 11.6 25.9 12.59-11.92 4.65-31.81 14.9-43.74 19.55zm45.22-24.331c-9.38-.89-18.35-4.17-25.73-10.01 8.75-4.55 18.7-9.09 27.45-13.65.38 8.501-.79 15.341-1.72 23.66zm1.89-30.879c-3.56-5.02-9.2-8.23-16.25-10.18 4.97-1.23 9.95-2.45 14.93-3.66 1.01 4.61 1.61 9.219 1.32 13.84zm-25.44-13.46c7.71-9.7 16.24-19.64 23.96-29.34 7.34 3.35 13.26 8.52 19.28 15.37-14.41 4.65-28.83 9.309-43.24 13.97zm28.96-33.85c13.71-6.74 28.48-11.53 43.49-15.86-7.7 11.77-16.92 23.23-25.93 35.01-3.88-7.211-9.95-14.14-17.56-19.15zm21.66 18.06c9.52-10.26 16.98-21.22 23.88-32.36 11.13 5.72 20.12 13.36 27.32 22.59-16.83 1.6-33.93 5.1-51.2 9.77z"/><g clip-rule="evenodd" fill-rule="evenodd"><path id="path31" d="m63.025 334.343v-21.678h4.32l5.128 15.349c.474 1.428.823 2.498 1.035 3.21.247-.788.631-1.948 1.156-3.478l5.189-15.081h3.861v21.678h-2.766v-18.145l-6.299 18.145h-2.589l-6.269-18.453v18.453zm24.989-18.614v-3.064h2.665v3.064zm0 18.614v-15.702h2.665v15.702zm16.964-5.754 2.615.343c-.283 1.802-1.015 3.215-2.196 4.235-1.176 1.02-2.624 1.529-4.341 1.529-2.145 0-3.876-.702-5.178-2.105-1.307-1.403-1.963-3.417-1.963-6.041 0-1.696.283-3.18.843-4.452.565-1.272 1.418-2.226 2.569-2.862 1.146-.636 2.397-.954 3.745-.954 1.706 0 3.104.434 4.184 1.297 1.085.863 1.782 2.084 2.09 3.674l-2.589.399c-.247-1.055-.681-1.847-1.307-2.382-.626-.53-1.383-.798-2.271-.798-1.343 0-2.433.479-3.271 1.444-.838.959-1.257 2.478-1.257 4.558 0 2.11.404 3.644 1.216 4.603.808.954 1.863 1.433 3.165 1.433 1.045 0 1.913-.323 2.615-.964.7-.64 1.144-1.624 1.331-2.957zm4.865 5.754v-15.702h2.392v2.377c.611-1.11 1.176-1.847 1.696-2.201.515-.353 1.085-.535 1.706-.535.899 0 1.807.288 2.736.858l-.919 2.473c-.646-.389-1.297-.58-1.948-.58-.586 0-1.105.177-1.57.525-.464.353-.792.838-.989 1.458-.298.944-.444 1.979-.444 3.104v8.222h-2.66zm9.12-7.854c0-2.907.807-5.062 2.428-6.46 1.347-1.161 2.993-1.747 4.936-1.747 2.16 0 3.927.707 5.295 2.125 1.373 1.413 2.054 3.367 2.054 5.86 0 2.024-.303 3.614-.908 4.77-.606 1.161-1.489 2.059-2.645 2.7-1.161.641-2.423.959-3.796.959-2.196 0-3.972-.702-5.33-2.115-1.357-1.408-2.034-3.437-2.034-6.092zm2.736 0c0 2.014.439 3.518 1.317 4.517.878 1.005 1.983 1.504 3.311 1.504 1.322 0 2.423-.505 3.301-1.509.873-1.004 1.312-2.539 1.312-4.598 0-1.943-.439-3.417-1.322-4.416s-1.979-1.499-3.291-1.499c-1.328 0-2.433.5-3.311 1.494-.878.995-1.317 2.499-1.317 4.507zm14.036 3.165 2.63-.414c.146 1.055.56 1.863 1.237 2.428.671.56 1.615.843 2.832.843 1.221 0 2.13-.252 2.721-.747.59-.5.888-1.085.888-1.752 0-.605-.263-1.075-.787-1.423-.363-.237-1.272-.535-2.72-.898-1.948-.495-3.306-.919-4.058-1.282-.752-.358-1.328-.858-1.716-1.494-.389-.636-.586-1.338-.586-2.105 0-.702.162-1.348.484-1.943.318-.601.757-1.095 1.307-1.489.414-.303.979-.565 1.691-.777.717-.212 1.484-.318 2.301-.318 1.232 0 2.312.182 3.245.535.934.354 1.62.833 2.064 1.439.444.611.747 1.418.914 2.433l-2.599.358c-.121-.807-.464-1.439-1.03-1.893-.565-.454-1.368-.681-2.402-.681-1.221 0-2.095.202-2.615.606-.525.404-.787.878-.787 1.418 0 .348.111.656.328.934.217.288.555.52 1.02.712.268.096 1.05.323 2.352.676 1.883.505 3.195.913 3.937 1.237.747.318 1.333.787 1.757 1.398s.636 1.368.636 2.276c0 .888-.262 1.721-.777 2.509-.52.783-1.267 1.388-2.241 1.817s-2.079.641-3.311.641c-2.044 0-3.599-.424-4.669-1.272-1.072-.85-1.753-2.106-2.046-3.772zm15.213-3.165c0-2.907.807-5.062 2.428-6.46 1.348-1.161 2.993-1.747 4.936-1.747 2.16 0 3.927.707 5.295 2.125 1.373 1.413 2.054 3.367 2.054 5.86 0 2.024-.303 3.614-.909 4.77-.606 1.161-1.489 2.059-2.645 2.7-1.161.641-2.423.959-3.796.959-2.196 0-3.972-.702-5.33-2.115-1.357-1.408-2.033-3.437-2.033-6.092zm2.735 0c0 2.014.439 3.518 1.317 4.517.878 1.005 1.983 1.504 3.311 1.504 1.322 0 2.423-.505 3.301-1.509.873-1.004 1.312-2.539 1.312-4.598 0-1.943-.439-3.417-1.323-4.416-.883-.999-1.979-1.499-3.291-1.499-1.328 0-2.433.5-3.311 1.494-.877.995-1.316 2.499-1.316 4.507zm15.732 7.854v-13.633h-2.347v-2.069h2.347v-1.671c0-1.055.096-1.842.283-2.352.257-.691.707-1.252 1.353-1.681s1.549-.641 2.715-.641c.747 0 1.575.086 2.483.268l-.399 2.322c-.55-.101-1.075-.151-1.57-.151-.808 0-1.378.172-1.711.52-.338.343-.505.989-.505 1.938v1.449h3.059v2.069h-3.059v13.633h-2.649zm13.593-2.382.384 2.352c-.747.156-1.418.237-2.009.237-.969 0-1.716-.151-2.251-.459-.53-.303-.904-.707-1.121-1.206-.217-.495-.328-1.544-.328-3.139v-9.034h-1.953v-2.069h1.953v-3.892l2.65-1.595v5.486h2.675v2.069h-2.675v9.181c0 .762.045 1.246.136 1.464.096.217.247.389.459.52.212.126.515.192.908.192.299-.001.687-.037 1.172-.107z"/><path id="path33" d="m185.456 320.006c0-1.39.488-2.57 1.466-3.544.978-.973 2.167-1.461 3.565-1.461 1.385 0 2.568.488 3.546 1.461.976.974 1.466 2.154 1.466 3.544 0 1.392-.49 2.572-1.466 3.546-.978.974-2.163 1.461-3.552 1.461-1.402 0-2.591-.488-3.565-1.461-.975-.973-1.46-2.154-1.46-3.546zm.625 0c0 1.225.429 2.264 1.286 3.117.859.851 1.896 1.276 3.113 1.276 1.221 0 2.258-.427 3.113-1.28.853-.853 1.28-1.89 1.28-3.113 0-1.221-.429-2.258-1.284-3.115-.855-.855-1.892-1.284-3.109-1.284-1.216 0-2.253.429-3.113 1.282-.858.853-1.286 1.892-1.286 3.117zm6.849 3.119h-1.151l-.667-1.529c-.165-.37-.338-.648-.52-.834s-.374-.279-.577-.279h-.574v2.642h-.948v-6.348h1.833c.733 0 1.307.152 1.719.458.412.304.618.733.618 1.28 0 .437-.139.809-.42 1.115-.281.304-.674.509-1.183.612.177.049.355.171.532.368.177.196.348.467.513.813zm-3.489-5.543v2.11h.934c.42 0 .737-.089.951-.266.211-.177.319-.443.319-.798 0-.376-.116-.644-.344-.805s-.591-.241-1.086-.241z"/><path id="path35" d="m442.004 363.098c0-.965.339-1.784 1.017-2.46.679-.676 1.504-1.014 2.475-1.014.962 0 1.783.339 2.461 1.014.677.676 1.017 1.495 1.017 2.46 0 .966-.34 1.786-1.017 2.461-.679.676-1.501 1.014-2.466 1.014-.973 0-1.799-.339-2.475-1.014-.674-.676-1.012-1.495-1.012-2.461zm.434 0c0 .85.298 1.572.893 2.164.597.591 1.316.885 2.161.885.847 0 1.567-.296 2.161-.888.592-.592.888-1.312.888-2.161 0-.847-.297-1.567-.891-2.162-.594-.594-1.314-.891-2.158-.891s-1.564.298-2.161.89c-.595.591-.893 1.312-.893 2.163zm4.755 2.165h-.799l-.463-1.061c-.114-.257-.234-.45-.361-.579-.126-.129-.26-.194-.4-.194h-.399v1.834h-.658v-4.407h1.272c.509 0 .908.106 1.194.318.286.211.429.509.429.888 0 .303-.097.562-.292.774-.195.211-.468.353-.821.425.123.034.246.119.369.255s.242.324.356.565zm-2.422-3.848v1.465h.648c.292 0 .512-.062.66-.185.147-.123.221-.308.221-.554 0-.261-.081-.447-.239-.558s-.41-.167-.754-.167h-.536z"/><path id="path37" d="m301.37 313.917v-4.744h-1.772v-.635h4.264v.635h-1.78v4.744zm3.199 0v-5.379h1.072l1.272 3.809c.118.355.204.62.257.797.061-.195.157-.483.287-.863l1.288-3.743h.958v5.379h-.686v-4.503l-1.563 4.503h-.643l-1.555-4.579v4.579z"/><path id="path39" d="m63.278 388.654c1.681 1.475 3.919 2.673 6.737 3.616 2.806.943 5.479 1.415 8.007 1.415 7.692 0 11.551-2.734 11.551-8.212 0-1.536-.411-2.915-1.245-4.149-.823-1.234-1.959-2.31-3.399-3.266-1.44-.943-4.149-2.395-8.116-4.354-5.503-2.734-9.132-5.286-10.873-7.632-1.754-2.359-2.625-5.044-2.625-8.068 0-4.56 1.826-8.176 5.491-10.837 3.665-2.673 8.285-4.003 13.861-4.003 5.455 0 9.458.653 12.011 1.983v7.717c-3.314-2.286-7.487-3.435-12.543-3.435-3.362 0-6.096.702-8.213 2.117-2.105 1.403-3.169 3.351-3.169 5.854 0 2.225.738 4.027 2.201 5.431 1.464 1.391 4.645 3.29 9.531 5.697 5.382 2.576 9.156 5.152 11.297 7.729 2.153 2.576 3.229 5.467 3.229 8.684 0 4.814-1.742 8.515-5.249 11.091-3.495 2.576-8.346 3.858-14.562 3.858-2.165 0-4.705-.302-7.596-.907-2.891-.593-5.007-1.342-6.326-2.25zm94.572 24.565c-1.718.544-3.786.81-6.193.81-3.399 0-6.628-.822-9.664-2.479s-7.233-5.539-12.591-11.66c-7.354.048-13.389-2.564-18.131-7.825-4.729-5.274-7.1-11.902-7.1-19.884 0-8.902 2.395-15.966 7.197-21.191 4.79-5.213 11.345-7.825 19.667-7.825 7.487 0 13.559 2.564 18.227 7.68 4.669 5.128 7.003 11.805 7.003 20.03 0 7.293-1.645 13.426-4.935 18.385-3.278 4.959-7.946 8.164-13.994 9.604 3.048 3.314 5.648 5.576 7.801 6.785 2.141 1.222 4.548 1.827 7.185 1.827 2.177 0 4.015-.315 5.527-.956v6.699zm-46.24-41.607c0 6.64 1.693 11.962 5.092 15.966 3.386 4.004 7.813 6.012 13.268 6.012 5.854 0 10.462-1.923 13.801-5.757 3.339-3.846 5.008-9.216 5.008-16.111 0-7.088-1.633-12.555-4.899-16.401-3.278-3.858-7.753-5.782-13.45-5.782-5.6 0-10.136 2.032-13.607 6.096-3.471 4.063-5.213 9.385-5.213 15.977zm84.206 27.359h-28.956v-54.888h7.088v48.61h21.868zm27.202-10.317c1.681 1.475 3.919 2.673 6.737 3.616 2.806.943 5.479 1.415 8.007 1.415 7.692 0 11.551-2.734 11.551-8.212 0-1.536-.411-2.915-1.245-4.149-.822-1.234-1.959-2.31-3.399-3.266-1.439-.943-4.149-2.395-8.116-4.354-5.503-2.734-9.132-5.286-10.873-7.632-1.754-2.359-2.625-5.044-2.625-8.068 0-4.56 1.826-8.176 5.491-10.837 3.665-2.673 8.285-4.003 13.861-4.003 5.455 0 9.458.653 12.011 1.983v7.717c-3.314-2.286-7.487-3.435-12.543-3.435-3.363 0-6.096.702-8.213 2.117-2.105 1.403-3.169 3.351-3.169 5.854 0 2.225.738 4.027 2.201 5.431 1.464 1.391 4.645 3.29 9.531 5.697 5.382 2.576 9.156 5.152 11.297 7.729 2.153 2.576 3.229 5.467 3.229 8.684 0 4.814-1.742 8.515-5.249 11.091-3.495 2.576-8.346 3.858-14.563 3.858-2.165 0-4.705-.302-7.596-.907-2.891-.593-5.007-1.342-6.326-2.25zm75.473-7.511h-27.419c.121 4.185 1.258 7.414 3.435 9.7 2.177 2.274 5.213 3.411 9.107 3.411 4.391 0 8.418-1.403 12.083-4.209v6.193c-3.447 2.443-8.019 3.653-13.716 3.653-5.672 0-10.087-1.79-13.268-5.382s-4.766-8.576-4.766-14.949c0-6.011 1.742-10.958 5.225-14.853s7.813-5.842 12.99-5.842c5.128 0 9.132 1.645 12.01 4.935 2.879 3.302 4.318 7.91 4.318 13.837v3.506zm-6.942-5.564c-.024-3.544-.859-6.277-2.516-8.212s-3.979-2.915-6.979-2.915c-2.77 0-5.152 1.028-7.172 3.084s-3.29 4.741-3.81 8.043zm37.204-8.926c-1.161-.822-2.757-1.234-4.778-1.234-2.697 0-4.923 1.258-6.664 3.774-1.754 2.516-2.625 5.83-2.625 9.93v19.848h-6.943v-39.188h6.943v7.971h.145c1.984-5.769 5.406-8.648 10.269-8.648 1.584 0 2.806.181 3.653.532zm41.426-6.87-15.518 39.188h-7.015l-14.744-39.188h7.584l9.567 27.988c.774 2.25 1.246 4.125 1.379 5.636h.182c.23-1.984.653-3.81 1.234-5.491l10.039-28.133zm37.979 21.36h-27.419c.121 4.185 1.258 7.414 3.435 9.701 2.177 2.274 5.213 3.411 9.107 3.411 4.391 0 8.418-1.403 12.083-4.209v6.193c-3.447 2.443-8.019 3.653-13.716 3.653-5.673 0-10.087-1.79-13.268-5.382s-4.766-8.576-4.766-14.95c0-6.011 1.742-10.958 5.225-14.853s7.813-5.842 12.99-5.842c5.128 0 9.132 1.645 12.01 4.935 2.879 3.302 4.318 7.91 4.318 13.837v3.506zm-6.943-5.564c-.024-3.544-.859-6.277-2.516-8.212s-3.979-2.915-6.979-2.915c-2.77 0-5.152 1.028-7.172 3.084s-3.29 4.741-3.81 8.043zm37.205-8.926c-1.161-.822-2.758-1.234-4.778-1.234-2.697 0-4.922 1.258-6.664 3.774-1.754 2.516-2.625 5.83-2.625 9.93v19.848h-6.943v-39.188h6.943v7.971h.145c1.984-5.769 5.407-8.648 10.269-8.648 1.584 0 2.806.181 3.653.532z"/></g></g></g></svg>