<svg id="Capa_1" enable-background="new 0 0 512.025 512.025" height="512" viewBox="0 0 512.025 512.025" width="512" xmlns="http://www.w3.org/2000/svg" xmlns:xlink="http://www.w3.org/1999/xlink"><linearGradient id="lg1"><stop offset="0" stop-color="#868789"/><stop offset="1" stop-color="#fff"/></linearGradient><linearGradient id="path10_00000083065495514765609030000003511209795808545725_" gradientTransform="matrix(-12.63 -39.162 -64.976 7.612 -48875.699 -25342.928)" gradientUnits="userSpaceOnUse" x1="-767.087" x2="-767.087" xlink:href="#lg1" y1="-606.506" y2="-607.813"/><linearGradient id="path20_00000041259425877743214120000001773102753919403931_" gradientTransform="matrix(-28.692 -108.583 -115.076 27.073 -90857.586 -64919.5)" gradientUnits="userSpaceOnUse" x1="-751.121" x2="-751.121" xlink:href="#lg1" y1="-603.882" y2="-605.189"/><radialGradient id="path29_00000123410896738836559390000017736891528352865168_" cx="-736.109" cy="-608.688" gradientTransform="matrix(176.155 0 0 -121.996 129981.094 -74104.742)" gradientUnits="userSpaceOnUse" r="1.306"><stop offset="0" stop-color="#e75a47"/><stop offset="1" stop-color="#9a2123"/></radialGradient><g><path id="path10" d="m281.012 46.36c-22.403 10.038-44.584 20.273-61.707 34.99 3.228 1.255 6.851 3.777 10.38 4.81.167 1.094-.039-.013 0 0 15.293 4.483 33.404 7.193 50.84 9.741-.052-.039-.441-1.454-.507-1.48-1.372-.81-5.385-1.804-6.509-2.575 6.522-1.987 14.365-5.503 18.286-8.94 2.327 4.209 7.098 9.725 9.137 12.469-4.836.301-11.62-.523-16.469-.235h-.091c.732.105.337 2.228 1.056 2.346.183.026.99.448 1.173.474 6.392.954 19.22.552 19.207.552h.013c-11.346-16.313-19.28-33.814-24.809-52.152zm-2.169 7.986c2.444 7.699 5.307 14.247 8.914 18.743-12.469-.275-25.331-1.634-38.964-5.124 8.784-5.777 18.94-10.168 30.05-13.619zm-37.892 32.99c-2.497-1.229-3.79-3.059-10.443-4.222 1.869-4.64 5.307-8.496 9.79-10.234 3.268 4.353 7.071 9.842 12.966 13.62-4.104.274-8.195.562-12.286.85-.001-.001-.014-.001-.027-.014zm27.004 3.189c-8.98-4.575-18.024-13.397-22.638-19.724 13.058 3.934 31.343 8.287 44.401 8.718-5.347 4.079-13.516 8.105-21.763 11.006z" fill="url(#path10_00000083065495514765609030000003511209795808545725_)"/><path id="path20" d="m332.851 186.608c-.013-.026-.013-.052-.013-.078.013.078-1.968-.301-2.831 0-12.953 4.405-25.536 8.067-38.019 12.524-10.144 3.62-21 6.994-30.784 11.082-13.464 5.625-25.617 13.734-38.304 21.121-.902 10.038.797 19.358 6.287 27.657-14.221 3.699-28.442 7.411-42.663 11.11.889-11.62 7.581-19.358 17.332-26.533-72.921 52.858 35.487 87.103 101.964 89.312 23.763-52.622 32.912-96.069 27.031-146.195zm-39.866 18.024c1.516 8.574-1.751 21.07-3.49 30.729-3.869-1.778-13.672-7.999-21.331-21.135 7.476-2.692 17.345-6.901 24.821-9.594zm8.052-3.921c12.26 4.143 22.351 9.372 27.645 17.005-11.241 5.738-24.887 13.659-36.14 19.397 2.038-11.411 6.469-24.991 8.495-36.402zm-12.352 41.081c-1.882 12.273-13.855 30.219-24.442 41.316-10.261-5.398-19.135-12.051-24.599-21.802 15.488-2.901 35.578-13.985 49.041-19.514zm-51.433 15.489c6.967-12.652 20.246-28.233 27.213-40.872 5.803 12.13 14.809 18.665 21.763 22.665-13.241 7.254-35.147 16.769-48.976 18.207zm-7.411-27.148c9.006-3.777 17.998-7.555 27.004-11.332-4.967 12.103-12.731 23.802-21.776 35.317-6.013-4.588-8.614-16.038-5.228-23.985zm-27.867 69.981c-10.953-4.836-15.515-14.352-15.737-27.03 14.103-3.202 28.206-6.392 42.297-9.594-4.889 13.279-14.104 25.383-26.56 36.624zm32.01-34.886c5.294 7.45 12.849 14.064 23.946 21.37-16.495 7.058-33.422 11.973-50.505 16.129 10.757-11.685 19.867-24.076 26.559-37.499zm-23.945 39.016c17.541-3.163 36.598-9.685 52.675-15.476-2.039 10.417-11.084 21.71-20.678 30.089-11.45-2.889-22.286-7.359-31.997-14.613zm57.628-13.28c12.417 7.28 26.743 9.372 40.336 11.973-18.913 8.587-39.748 13.737-61.288 17.659 9.241-9.921 16.064-18.823 20.952-29.632zm34.899 37.918c-15.698-.497-31.03-2.706-46.152-6.104 19.005-4.353 37.474-10.352 55.616-17.332-2.785 8.47-4.955 16.417-9.464 23.436zm13.058-29.644c-13.803-2.523-33.003-3.803-43.761-12.43 17.123-7.267 36.65-15.188 53.773-22.442-1.961 12.495-5.882 23.461-10.012 34.872zm-47.682-13.737c8.509-8.783 20.965-29.2 23.671-42.636 11.659 8.274 25.592 15.397 34.35 16.704-15.816 6.169-42.193 19.762-58.021 25.932zm59.994-32.272c-12.443-1.176-24.351-5.529-34.141-13.28 11.607-6.039 24.808-12.064 36.415-18.103.51 11.267-1.045 20.338-2.274 31.383zm2.497-40.963c-4.719-6.666-12.195-10.927-21.554-13.515 6.601-1.621 13.201-3.242 19.802-4.849 1.346 6.116 2.144 12.233 1.752 18.364z" fill="url(#path20_00000041259425877743214120000001773102753919403931_)"/><path id="path29" d="m436.03 158.245c-33.683-41.604-78.28-51.368-130.21-59.733 0 0 0 0-.013 0-6.13-.993-12.365-1.961-18.691-2.967-.183-.026-.379-.052-.562-.078-.693-.118-1.386-.222-2.091-.327-1.477-.235-2.954-.484-4.444-.719-12.665-2.039-25.684-4.261-39.042-7.071 0 0-.013 0-.026-.013-3.359-.706-6.757-1.451-10.169-2.235-.405-.092-.797-.196-1.189-.288-.039-.013-.092-.026-.131-.039-5.15-1.294-8.627-2.732-10.156-3.424-.209-.091-.392-.17-.523-.235.98.562 3.856 2.274 8.862 5.908 49.773 36.206 51.211 84.358-4.339 137.843-4.797 4.627-9.999 10.169-15.005 15.502.131-.079.248-.157.379-.235 4.718-2.941 9.424-5.895 14.156-8.836.026-.013.039-.026.065-.039 22.691-11.934 46.244-22.129 69.157-30.729 13.031-4.888 25.854-9.254 38.179-13.11.876-.287 1.738-.549 2.614-.81 47.054-14.574 86.632-21.776 102.997-22.795 3.411-.211 3.698-1.231.182-5.57zm-48.779-33.383c-19.41 5.594-37.8 13.084-55.184 22.455 5.568-9.502 10.862-24.834 11.215-36.075 14.52 2.928 30.035 7.778 43.969 13.62zm-59.759 20.273c-6.352-5.424-13.973-9.254-22.638-11.764 11.045-9.803 23.03-17.384 35.813-23.109-2.47 12.221-6.065 24.103-13.175 34.873zm-60.204-15.777c7.699 2.17 15.397 4.339 23.083 6.509-7.542 6.653-14.652 13.306-22.207 19.946.431-8.09.183-17.174-.876-26.455zm27.658 8.588c-4.536 11.515-9.071 23.031-13.607 34.546-3.241-4.47-7.816-7.11-13.384-8.391 8.992-8.719 17.998-17.437 26.991-26.155zm-14.143 41.081c4.274 4.784 4.418 12.809 5.215 19.619-11.999 3.79-26.194 9.685-40.166 17.123 10.666-11.163 24.272-25.58 34.951-36.742zm18.613-39.121c7.79 1.778 14.103 5.045 19.593 9.15-11.947 8.431-23.88 16.861-35.814 25.292 5.398-11.476 10.81-22.966 16.221-34.442zm35.813-31.5c-12.509 5.986-24.181 13.489-34.951 22.665-1.346-9.516-2.68-19.031-4.026-28.546 13.437.313 26.403 2.365 38.977 5.881zm-39.957 21.802c-8.6-2.771-17.201-5.529-25.802-8.287 5.738-9.019 14.704-14.169 23.41-19.619.798 9.306 1.595 18.6 2.392 27.906zm-58.948-40.349c4.209.105 8.94.967 14.09 3.006 3.66 5.738 6.209 13.267 7.254 19.305-5.163-7.502-13.293-16.272-21.344-22.311zm27.814 29.448c-1.712-7.319-3.451-14.652-7.019-24.063 10.378.836 21.266 2 31.356 5.45-8.757 5.098-17.605 11.189-24.337 18.613zm.771 51.446c3.634.706 6.914 2.601 9.685 6.209-5.451 3.673-10.888 7.346-16.325 11.005 2.889-5.398 5.49-10.94 6.64-17.214zm-7.947 20.051c.836 2.614 1.66 5.228 2.496 7.842-6.771 4.653-13.528 9.306-20.299 13.96 9.438-9.124 13.869-15.921 17.803-21.802zm32.755 6.535c-.536-7.777-2.157-14.613-5.019-20.364 13.071-8.182 26.141-16.351 39.199-24.534-10.731 14.535-23.436 30.376-34.18 44.898zm6.967-2.941c10.234-12.862 21.553-26.05 31.788-38.911 9.738 4.444 17.593 11.293 25.579 20.39-19.122 6.169-38.245 12.352-57.367 18.521zm38.428-44.898c18.181-8.94 37.774-15.306 57.694-21.044-10.221 15.619-22.442 30.821-34.402 46.44-5.15-9.554-13.202-18.756-23.292-25.396zm28.729 23.959c12.626-13.62 22.534-28.154 31.683-42.937 14.77 7.594 26.69 17.724 36.245 29.971-22.324 2.13-45.015 6.77-67.928 12.966z" fill="url(#path29_00000123410896738836559390000017736891528352865168_)"/><g clip-rule="evenodd" fill="#1b1918" fill-rule="evenodd"><path id="path31" d="m0 359.948v-28.759h5.732l6.803 20.363c.63 1.895 1.092 3.314 1.373 4.259.328-1.045.837-2.585 1.533-4.613l6.883-20.008h5.122v28.759h-3.67v-24.072l-8.356 24.072h-3.435l-8.316-24.481v24.481h-3.669zm33.152-24.695v-4.065h3.535v4.065zm0 24.695v-20.831h3.535v20.831zm22.505-7.633 3.469.456c-.375 2.39-1.346 4.265-2.913 5.618-1.56 1.353-3.482 2.029-5.758 2.029-2.846 0-5.143-.931-6.87-2.793-1.734-1.861-2.605-4.533-2.605-8.015 0-2.25.375-4.219 1.118-5.906.75-1.687 1.882-2.953 3.408-3.797 1.52-.843 3.181-1.266 4.968-1.266 2.263 0 4.118.576 5.551 1.721 1.44 1.145 2.364 2.765 2.772 4.875l-3.435.529c-.328-1.4-.904-2.451-1.734-3.161-.83-.703-1.835-1.058-3.013-1.058-1.781 0-3.228.636-4.339 1.915-1.111 1.272-1.667 3.288-1.667 6.046 0 2.799.536 4.835 1.614 6.107 1.071 1.266 2.471 1.902 4.198 1.902 1.386 0 2.538-.429 3.469-1.279.93-.85 1.519-2.155 1.767-3.923zm6.455 7.633v-20.831h3.174v3.154c.81-1.473 1.56-2.451 2.25-2.92.683-.469 1.439-.71 2.263-.71 1.192 0 2.397.382 3.629 1.139l-1.219 3.281c-.857-.516-1.721-.77-2.585-.77-.777 0-1.466.234-2.082.696-.616.469-1.051 1.111-1.313 1.935-.395 1.252-.589 2.625-.589 4.118v10.908zm12.1-10.419c0-3.857 1.071-6.716 3.221-8.571 1.788-1.54 3.97-2.317 6.549-2.317 2.866 0 5.209.937 7.024 2.819 1.821 1.875 2.725 4.466 2.725 7.774 0 2.685-.402 4.794-1.205 6.328-.804 1.54-1.975 2.732-3.509 3.583-1.54.85-3.214 1.272-5.035 1.272-2.913 0-5.27-.931-7.071-2.806-1.802-1.868-2.699-4.56-2.699-8.082zm3.629 0c0 2.671.582 4.667 1.748 5.993 1.165 1.332 2.631 1.995 4.393 1.995 1.754 0 3.214-.67 4.379-2.002 1.158-1.332 1.741-3.368 1.741-6.1 0-2.578-.583-4.533-1.755-5.859s-2.625-1.989-4.366-1.989c-1.761 0-3.228.663-4.393 1.982-1.165 1.32-1.747 3.315-1.747 5.98zm18.621 4.199 3.489-.549c.194 1.4.743 2.471 1.641 3.221.891.743 2.143 1.118 3.756 1.118 1.62 0 2.826-.335 3.609-.991.783-.663 1.178-1.44 1.178-2.324 0-.803-.348-1.426-1.045-1.888-.482-.315-1.688-.71-3.609-1.192-2.585-.656-4.386-1.219-5.384-1.701-.998-.475-1.761-1.138-2.277-1.982s-.777-1.775-.777-2.792c0-.931.215-1.788.643-2.578.422-.797 1.004-1.453 1.734-1.975.549-.402 1.299-.75 2.243-1.031.951-.281 1.968-.422 3.053-.422 1.634 0 3.067.241 4.306.71s2.15 1.105 2.739 1.908c.589.81.991 1.882 1.212 3.228l-3.448.475c-.161-1.071-.616-1.909-1.366-2.511-.75-.603-1.814-.904-3.187-.904-1.62 0-2.779.268-3.469.804-.696.536-1.045 1.165-1.045 1.882 0 .462.148.87.435 1.239.288.382.737.69 1.353.944.355.127 1.392.428 3.12.897 2.498.67 4.239 1.212 5.223 1.641.991.421 1.768 1.044 2.33 1.855.562.81.844 1.814.844 3.02 0 1.179-.348 2.284-1.031 3.328-.69 1.038-1.681 1.841-2.973 2.411-1.293.569-2.759.851-4.393.851-2.712 0-4.774-.563-6.194-1.688-1.418-1.128-2.321-2.795-2.71-5.004zm20.182-4.199c0-3.857 1.071-6.716 3.221-8.571 1.788-1.54 3.971-2.317 6.549-2.317 2.866 0 5.209.937 7.024 2.819 1.821 1.875 2.725 4.466 2.725 7.774 0 2.685-.402 4.794-1.205 6.328-.804 1.54-1.975 2.732-3.509 3.583-1.54.85-3.214 1.272-5.035 1.272-2.913 0-5.27-.931-7.071-2.806-1.802-1.868-2.699-4.56-2.699-8.082zm3.629 0c0 2.671.582 4.667 1.748 5.993 1.165 1.332 2.631 1.995 4.393 1.995 1.754 0 3.214-.67 4.379-2.002 1.158-1.332 1.741-3.368 1.741-6.1 0-2.578-.583-4.533-1.755-5.859s-2.625-1.989-4.366-1.989c-1.761 0-3.228.663-4.393 1.982-1.165 1.32-1.747 3.315-1.747 5.98zm20.871 10.419v-18.086h-3.114v-2.745h3.114v-2.216c0-1.4.127-2.444.375-3.12.341-.917.937-1.661 1.794-2.23s2.056-.851 3.603-.851c.991 0 2.089.114 3.294.355l-.529 3.08c-.73-.134-1.426-.201-2.082-.201-1.072 0-1.828.228-2.27.69-.449.455-.67 1.312-.67 2.571v1.922h4.058v2.745h-4.058v18.086zm18.032-3.16.509 3.12c-.991.207-1.882.315-2.665.315-1.286 0-2.277-.201-2.986-.609-.703-.402-1.199-.937-1.487-1.6-.288-.656-.435-2.049-.435-4.165v-11.986h-2.591v-2.745h2.591v-5.163l3.515-2.116v7.279h3.549v2.745h-3.549v12.18c0 1.011.06 1.654.181 1.942.127.288.328.516.609.689.281.168.683.255 1.205.255.396-.001.912-.048 1.554-.141z"/><path id="path33" d="m162.424 340.928c0-1.844.647-3.41 1.944-4.702 1.297-1.291 2.875-1.939 4.73-1.939 1.838 0 3.407.647 4.704 1.939 1.294 1.292 1.945 2.858 1.945 4.702 0 1.846-.65 3.413-1.945 4.704-1.297 1.292-2.869 1.939-4.713 1.939-1.86 0-3.438-.647-4.729-1.939-1.292-1.291-1.936-2.857-1.936-4.704zm.829 0c0 1.625.569 3.004 1.707 4.135 1.14 1.129 2.516 1.693 4.13 1.693 1.619 0 2.995-.566 4.13-1.698 1.132-1.132 1.698-2.508 1.698-4.13 0-1.619-.569-2.995-1.703-4.133-1.135-1.135-2.511-1.704-4.124-1.704-1.614 0-2.989.569-4.13 1.701-1.139 1.133-1.708 2.511-1.708 4.136zm9.086 4.138h-1.527l-.885-2.028c-.218-.49-.448-.86-.689-1.107s-.496-.37-.765-.37h-.762v3.505h-1.258v-8.422h2.432c.972 0 1.734.202 2.281.608.546.404.821.973.821 1.698 0 .58-.185 1.073-.557 1.479-.372.404-.894.675-1.569.813.235.065.471.227.706.488s.462.619.681 1.079zm-4.628-7.354v2.799h1.239c.557 0 .978-.118 1.261-.353.28-.236.423-.588.423-1.059 0-.499-.154-.855-.457-1.067-.302-.213-.784-.32-1.44-.32z"/><path id="path35" d="m502.777 398.096c0-1.28.449-2.367 1.35-3.264.9-.896 1.995-1.346 3.283-1.346 1.276 0 2.365.449 3.265 1.346.899.896 1.35 1.984 1.35 3.264 0 1.282-.451 2.369-1.35 3.266-.9.897-1.992 1.346-3.271 1.346-1.291 0-2.387-.449-3.283-1.346-.897-.897-1.344-1.984-1.344-3.266zm.575 0c0 1.128.395 2.085 1.185 2.871.792.784 1.746 1.175 2.867 1.175 1.124 0 2.079-.393 2.867-1.178.786-.786 1.178-1.741 1.178-2.867 0-1.124-.395-2.079-1.182-2.869-.788-.788-1.743-1.183-2.863-1.183s-2.075.395-2.867 1.181c-.79.785-1.185 1.742-1.185 2.87zm6.308 2.872h-1.06l-.615-1.408c-.152-.34-.311-.597-.478-.768s-.344-.257-.531-.257h-.529v2.433h-.873v-5.846h1.688c.675 0 1.204.14 1.583.422.379.28.57.675.57 1.178 0 .403-.128.745-.387 1.027-.259.28-.62.469-1.089.564.163.045.327.158.49.338.163.181.321.43.473.749zm-3.213-5.105v1.943h.86c.387 0 .679-.082.875-.245.194-.163.293-.408.293-.735 0-.346-.107-.593-.317-.741s-.544-.222-1-.222z"/><path id="path37" d="m316.203 332.85v-6.294h-2.351v-.842h5.656v.842h-2.361v6.294zm4.244 0v-7.137h1.422l1.688 5.053c.156.47.271.823.341 1.057.081-.259.208-.641.38-1.144l1.708-4.965h1.271v7.137h-.91v-5.973l-2.074 5.973h-.853l-2.064-6.075v6.075h-.909z"/><path id="path39" d="m.336 432c2.23 1.957 5.199 3.546 8.938 4.798 3.722 1.252 7.269 1.878 10.622 1.878 10.205 0 15.324-3.627 15.324-10.895 0-2.038-.545-3.867-1.652-5.504-1.091-1.637-2.6-3.065-4.509-4.332-1.91-1.252-5.504-3.177-10.767-5.777-7.301-3.627-12.115-7.012-14.425-10.125-2.327-3.129-3.482-6.691-3.482-10.703 0-6.049 2.423-10.847 7.285-14.377 4.862-3.546 10.992-5.311 18.389-5.311 7.237 0 12.548.866 15.934 2.631v10.237c-4.397-3.033-9.932-4.557-16.64-4.557-4.461 0-8.087.931-10.895 2.808-2.792 1.862-4.204 4.445-4.204 7.767 0 2.952.979 5.343 2.92 7.205 1.942 1.845 6.162 4.365 12.645 7.558 7.14 3.418 12.147 6.836 14.987 10.253 2.856 3.418 4.284 7.253 4.284 11.521 0 6.386-2.31 11.296-6.964 14.714-4.637 3.418-11.072 5.118-19.319 5.118-2.872 0-6.242-.401-10.077-1.203-3.835-.786-6.643-1.781-8.392-2.984v-10.72zm125.464 32.59c-2.279.722-5.023 1.075-8.216 1.075-4.509 0-8.793-1.091-12.821-3.289-4.027-2.198-9.595-7.349-16.704-15.469-9.756.065-17.763-3.402-24.053-10.382-6.274-6.996-9.419-15.789-9.419-26.38 0-11.81 3.177-21.181 9.548-28.113 6.354-6.916 15.051-10.382 26.091-10.382 9.933 0 17.987 3.402 24.181 10.189 6.194 6.804 9.291 15.661 9.291 26.572 0 9.676-2.182 17.811-6.547 24.39-4.348 6.579-10.542 10.831-18.565 12.741 4.044 4.397 7.493 7.397 10.35 9.002 2.84 1.621 6.033 2.423 9.532 2.423 2.888 0 5.327-.417 7.333-1.268v8.891zm-61.344-55.199c0 8.81 2.246 15.869 6.756 21.181 4.493 5.312 10.366 7.975 17.602 7.975 7.767 0 13.88-2.551 18.309-7.638 4.429-5.103 6.643-12.227 6.643-21.374 0-9.403-2.166-16.656-6.499-21.758-4.348-5.119-10.286-7.67-17.843-7.67-7.429 0-13.446 2.696-18.052 8.087-4.606 5.392-6.916 12.452-6.916 21.197zm111.713 36.297h-38.414v-72.818h9.403v64.489h29.011zm36.088-13.688c2.23 1.957 5.199 3.546 8.938 4.798 3.723 1.252 7.269 1.878 10.622 1.878 10.205 0 15.324-3.627 15.324-10.895 0-2.038-.545-3.867-1.652-5.504-1.091-1.637-2.6-3.065-4.509-4.332-1.91-1.252-5.504-3.177-10.767-5.777-7.301-3.627-12.115-7.012-14.425-10.125-2.327-3.129-3.482-6.691-3.482-10.703 0-6.049 2.423-10.847 7.285-14.377 4.862-3.546 10.992-5.311 18.389-5.311 7.237 0 12.548.866 15.934 2.631v10.237c-4.397-3.033-9.933-4.557-16.64-4.557-4.461 0-8.087.931-10.896 2.808-2.792 1.862-4.204 4.445-4.204 7.767 0 2.952.979 5.343 2.92 7.205 1.942 1.845 6.162 4.365 12.645 7.558 7.14 3.418 12.147 6.836 14.987 10.253 2.856 3.418 4.284 7.253 4.284 11.521 0 6.386-2.311 11.296-6.964 14.714-4.637 3.418-11.072 5.118-19.319 5.118-2.872 0-6.242-.401-10.077-1.203-3.835-.786-6.643-1.781-8.392-2.984zm100.127-9.964h-36.376c.16 5.552 1.669 9.836 4.557 12.869 2.888 3.017 6.916 4.525 12.082 4.525 5.825 0 11.168-1.861 16.03-5.584v8.216c-4.573 3.242-10.638 4.846-18.196 4.846-7.525 0-13.382-2.374-17.602-7.14s-6.322-11.377-6.322-19.833c0-7.975 2.311-14.538 6.932-19.705s10.366-7.75 17.233-7.75c6.804 0 12.115 2.182 15.934 6.547 3.819 4.38 5.728 10.494 5.728 18.357zm-9.211-7.382c-.032-4.701-1.139-8.328-3.337-10.895s-5.279-3.867-9.259-3.867c-3.675 0-6.835 1.364-9.515 4.091-2.68 2.728-4.365 6.29-5.055 10.671zm49.358-11.841c-1.54-1.091-3.658-1.637-6.338-1.637-3.578 0-6.53 1.669-8.841 5.006-2.326 3.338-3.482 7.734-3.482 13.174v26.331h-9.21v-51.989h9.21v10.574h.193c2.632-7.654 7.173-11.473 13.623-11.473 2.102 0 3.723.241 4.846.706zm54.958-9.115-20.587 51.99h-9.307l-19.56-51.99h10.061l12.692 37.131c1.027 2.985 1.653 5.472 1.829 7.478h.241c.305-2.632.867-5.055 1.636-7.285l13.318-37.323h9.677zm50.385 28.338h-36.376c.16 5.552 1.669 9.836 4.557 12.869 2.888 3.017 6.916 4.525 12.083 4.525 5.825 0 11.168-1.861 16.03-5.584v8.216c-4.573 3.242-10.638 4.846-18.196 4.846-7.525 0-13.382-2.375-17.602-7.14-4.22-4.766-6.322-11.377-6.322-19.833 0-7.975 2.311-14.538 6.932-19.705s10.366-7.75 17.233-7.75c6.804 0 12.115 2.182 15.934 6.547 3.819 4.38 5.728 10.494 5.728 18.357v4.652zm-9.211-7.382c-.032-4.701-1.139-8.328-3.337-10.895s-5.279-3.867-9.259-3.867c-3.675 0-6.836 1.364-9.515 4.092-2.68 2.728-4.365 6.29-5.055 10.671zm49.358-11.841c-1.54-1.091-3.658-1.637-6.338-1.637-3.578 0-6.53 1.669-8.841 5.006-2.326 3.338-3.482 7.734-3.482 13.174v26.331h-9.21v-51.99h9.21v10.575h.193c2.632-7.654 7.173-11.473 13.623-11.473 2.102 0 3.723.241 4.846.706z"/></g></g></svg>